{"title":"Teen Wolf S06E18 1080P WEB-DL DD5 1 H 264","magnet":"magnet:?xt=urn:btih:500f72cb8ff93773d63e01aefc8018477057017a&dn=Teen+Wolf+S06E18+1080P+WEB-DL+DD5+1+H+264&tr=udp%3A%2F%2Ftracker.leechers-paradise.org%3A6969&tr=udp%3A%2F%2Fzer0day.ch%3A1337&tr=udp%3A%2F%2Fopen.demonii.com%3A1337&tr=udp%3A%2F%2Ftracker.coppersurfer.tk%3A6969&tr=udp%3A%2F%2Fexodus.desync.com%3A6969","uploader":"jmanwf","categoryP":"video","categoryS":"hd___tv_shows","size":"1722736883","seeders":"19","leechers":"13","description":"Format                                   : Matroska\r\nFormat version                           : Version 4 / Version 2\r\nFile size                                : 1.60 GiB\r\nDuration                                 : 41 min 54 s\r\nOverall bit rate                         : 5 481 kb/s\r\n\r\nAudio #1\r\nID                                       : 1\r\nFormat                                   : AAC\r\nFormat/Info                              : Advanced Audio Codec\r\nFormat profile                           : LC\r\nCodec ID                                 : A_AAC\r\nDuration                                 : 41 min 54 s\r\nBit rate                                 : 126 kb/s\r\nChannel(s)                               : 2 channels\r\nChannel positions                        : Front: L R\r\nSampling rate                            : 48.0 kHz\r\nFrame rate                               : 46.875 FPS (1024 spf)\r\nCompression mode                         : Lossy\r\nDelay relative to video                  : -42 ms\r\nStream size                              : 37.7 MiB (2%)\r\nLanguage                                 : English\r\nDefault                                  : Yes\r\nForced                                   : No\r\n\r\nAudio #2\r\nID                                       : 2\r\nFormat                                   : AC-3\r\nFormat/Info                              : Audio Coding 3\r\nFormat settings, Endianness              : Big\r\nCodec ID                                 : A_AC3\r\nDuration                                 : 41 min 54 s\r\nBit rate mode                            : Constant\r\nBit rate                                 : 384 kb/s\r\nChannel(s)                               : 6 channels\r\nChannel positions                        : Front: L C R, Side: L R, LFE\r\nSampling rate                            : 48.0 kHz\r\nFrame rate                               : 31.250 FPS (1536 spf)\r\nBit depth                                : 16 bits\r\nCompression mode                         : Lossy\r\nDelay relative to video                  : -42 ms\r\nStream size                              : 115 MiB (7%)\r\nLanguage                                 : English\r\nService kind                             : Complete Main\r\nDefault                                  : No\r\nForced                                   : No","last_updated":"2017-09-18T12:13:29.304Z","parsed":{"xt":"urn:btih:500f72cb8ff93773d63e01aefc8018477057017a","dn":"Teen Wolf S06E18 1080P WEB-DL DD5 1 H 264","tr":["udp://exodus.desync.com:6969","udp://open.demonii.com:1337","udp://tracker.coppersurfer.tk:6969","udp://tracker.leechers-paradise.org:6969","udp://zer0day.ch:1337"],"infoHash":"500f72cb8ff93773d63e01aefc8018477057017a","infoHashBuffer":{"type":"Buffer","data":[80,15,114,203,143,249,55,115,214,62,1,174,252,128,24,71,112,87,1,122]},"name":"Teen Wolf S06E18 1080P WEB-DL DD5 1 H 264","announce":["udp://exodus.desync.com:6969","udp://open.demonii.com:1337","udp://tracker.coppersurfer.tk:6969","udp://tracker.leechers-paradise.org:6969","udp://zer0day.ch:1337"],"urlList":[]}}